# xmcd
#
# Track frame offsets:
#        150
#        18722
#        38050
#        60005
#        76885
#        95247
#        111177
#        132345
#        149317
#        165937
#        190965
#        211242
#        233165
#        252337
#        275242
#        295895
#        314722
#        337735
#
# Disc length: 4791 seconds
#
# Revision: 0
# Processed by: cddbd v1.5.1PL0 Copyright (c) Steve Scherf et al.
# Submitted via: ExactAudioCopy v0.95a5
#
DISCID=0612b512
DTITLE=Swing Out Sister - Cafe Orange Swing Out Sister Cafe Best
DYEAR=1900
DGENRE=Pop
TTITLE0=Am I The Same Girl
TTITLE1=Forever Blue
TTITLE2=La La Means I Love You
TTITLE3=Somewhere In The World
TTITLE4=Fooled By A Smile
TTITLE5=You On My Mind
TTITLE6=Incomplete Without You
TTITLE7=Breakout
TTITLE8=Don't Give Up On A Good Thing
TTITLE9=Where In The World
TTITLE10=Better Make It Better
TTITLE11=Mama Didn't Raise No Fool
TTITLE12=Waiting Game
TTITLE13=Get In Touch With Yourself
TTITLE14=Now You're Not Here
TTITLE15=Precious Words
TTITLE16=Here And Now
TTITLE17=Love Child
EXTD=
EXTT0=
EXTT1=
EXTT2=
EXTT3=
EXTT4=
EXTT5=
EXTT6=
EXTT7=
EXTT8=
EXTT9=
EXTT10=
EXTT11=
EXTT12=
EXTT13=
EXTT14=
EXTT15=
EXTT16=
EXTT17=
PLAYORDER=
